<svg version="1.1" xmlns="http://www.w3.org/2000/svg" viewBox="0 0 780 716" width="780" height="716">
  <!-- svg-source:excalidraw -->
  
  <defs>
    <style>
      @font-face {
        font-family: "Virgil";
        src: url("https://excalidraw.com/Virgil.woff2");
      }
      @font-face {
        font-family: "Cascadia";
        src: url("https://excalidraw.com/Cascadia.woff2");
      }
    </style>
  </defs>
  <rect x="0" y="0" width="780" height="716" fill="#ffffff"></rect><g transform="translate(70 10) rotate(0 0 0)"><text x="0" y="NaN" font-family="Virgil, Segoe UI Emoji" font-size="24px" fill="#1e1e1e" text-anchor="start" style="white-space: pre;" direction="ltr">Step 1: Program Starts - Static Data is Loaded</text></g><g transform="translate(10 56) rotate(0 0 0)"><text x="0" y="NaN" font-family="Virgil, Segoe UI Emoji" font-size="14px" fill="#495057" text-anchor="start" style="white-space: pre;" direction="ltr">High Memory Addresses  (0x0000_7FFF_FFFF_FFFF)</text></g><g stroke-linecap="round" transform="translate(10 82) rotate(0 210 33)"><path d="M-1.6 -0.58 L421.05 1.81 L420.25 64.23 L0.93 67.53" stroke="none" stroke-width="0" fill="#a5d8ff"></path><path d="M0.46 0.51 C83.83 0.17, 167.71 -1.38, 419.58 0.21 M-0.35 0.14 C93.2 -0.53, 185.98 -0.84, 419.69 0.4 M421.54 -1.75 C420.79 15.59, 421.49 27.07, 421.39 65.13 M420.3 -0.8 C420.45 16.85, 419.47 35.46, 420.41 66.35 M420.56 65.89 C329.97 68.11, 237.94 67.82, 0.98 65.78 M419.5 65.92 C262.07 66.4, 104.66 66.25, 0.5 66.02 M-0.72 65.72 C0.78 45.54, -0.95 28.32, 0.59 -1.21 M0.22 67 C-1.18 41.34, -0.68 17.08, 0.44 0.99" stroke="#1e1e1e" stroke-width="2" fill="none"></path></g><g transform="translate(195 96) rotate(0 0 0)"><text x="0" y="NaN" font-family="Virgil, Segoe UI Emoji" font-size="16px" fill="#1e1e1e" text-anchor="start" style="white-space: pre;" direction="ltr">STACK</text></g><g transform="translate(165 120) rotate(0 0 0)"><text x="0" y="NaN" font-family="Virgil, Segoe UI Emoji" font-size="14px" fill="#343a40" text-anchor="start" style="white-space: pre;" direction="ltr">(empty at start)</text></g><g stroke-linecap="round" transform="translate(10 152) rotate(0 210 20)"><path d="M-1.6 -0.58 L421.05 1.81 L420.25 38.23 L0.93 41.53" stroke="none" stroke-width="0" fill="#f1f3f5"></path><path d="M0.46 0.51 C83.83 0.17, 167.71 -1.38, 419.58 0.21 M-0.35 0.14 C93.2 -0.53, 185.98 -0.84, 419.69 0.4 M421.54 -1.75 C420.91 9.93, 421.61 15.76, 421.39 39.13 M420.3 -0.8 C420.37 9.88, 419.39 21.5, 420.41 40.35 M420.56 39.89 C329.97 42.11, 237.94 41.82, 0.98 39.78 M419.5 39.92 C262.07 40.4, 104.66 40.25, 0.5 40.02 M-0.72 39.72 C0.97 27, -0.76 17.24, 0.59 -1.21 M0.22 41 C-1.02 24.8, -0.52 10, 0.44 0.99" stroke="#1e1e1e" stroke-width="2" fill="none"></path></g><g transform="translate(172 164) rotate(0 0 0)"><text x="0" y="NaN" font-family="Virgil, Segoe UI Emoji" font-size="14px" fill="#495057" text-anchor="start" style="white-space: pre;" direction="ltr">(unused space)</text></g><g stroke-linecap="round" transform="translate(10 196) rotate(0 210 32)"><path d="M-1.6 -0.58 L421.05 1.81 L420.25 62.23 L0.93 65.53" stroke="none" stroke-width="0" fill="#b2f2bb"></path><path d="M0.46 0.51 C83.83 0.17, 167.71 -1.38, 419.58 0.21 M-0.35 0.14 C93.2 -0.53, 185.98 -0.84, 419.69 0.4 M421.54 -1.75 C420.8 15.15, 421.49 26.2, 421.39 63.13 M420.3 -0.8 C420.44 16.32, 419.47 34.38, 420.41 64.35 M420.56 63.89 C329.97 66.11, 237.94 65.82, 0.98 63.78 M419.5 63.92 C262.07 64.4, 104.66 64.25, 0.5 64.02 M-0.72 63.72 C0.8 44.12, -0.94 27.47, 0.59 -1.21 M0.22 65 C-1.17 40.07, -0.66 16.54, 0.44 0.99" stroke="#1e1e1e" stroke-width="2" fill="none"></path></g><g transform="translate(198 210) rotate(0 0 0)"><text x="0" y="NaN" font-family="Virgil, Segoe UI Emoji" font-size="16px" fill="#1e1e1e" text-anchor="start" style="white-space: pre;" direction="ltr">HEAP</text></g><g transform="translate(165 234) rotate(0 0 0)"><text x="0" y="NaN" font-family="Virgil, Segoe UI Emoji" font-size="14px" fill="#343a40" text-anchor="start" style="white-space: pre;" direction="ltr">(empty at start)</text></g><g stroke-linecap="round" transform="translate(10 264) rotate(0 210 75)"><path d="M-1.6 -0.58 L421.05 1.81 L420.25 148.23 L0.93 151.53" stroke="none" stroke-width="0" fill="#d0bfff"></path><path d="M0.46 0.51 C83.83 0.17, 167.71 -1.38, 419.58 0.21 M-0.35 0.14 C93.2 -0.53, 185.98 -0.84, 419.69 0.4 M421.54 -1.75 C420.41 33.86, 421.1 63.61, 421.39 149.13 M420.3 -0.8 C420.71 39.4, 419.74 80.55, 420.41 150.35 M420.56 149.89 C329.97 152.11, 237.94 151.82, 0.98 149.78 M419.5 149.92 C262.07 150.4, 104.66 150.25, 0.5 150.02 M-0.72 149.72 C0.17 105.45, -1.56 64.14, 0.59 -1.21 M0.22 151 C-1.7 94.78, -1.19 39.97, 0.44 0.99" stroke="#1e1e1e" stroke-width="2" fill="none"></path></g><g transform="translate(22 278) rotate(0 0 0)"><text x="0" y="NaN" font-family="Virgil, Segoe UI Emoji" font-size="15px" fill="#1e1e1e" text-anchor="start" style="white-space: pre;" direction="ltr">DATA SEGMENT  (Read + Write)</text></g><g transform="translate(22 302) rotate(0 0 0)"><text x="0" y="NaN" font-family="Virgil, Segoe UI Emoji" font-size="13px" fill="#343a40" text-anchor="start" style="white-space: pre;" direction="ltr">.bss section (Uninitialized Data):</text></g><g transform="translate(22 320) rotate(0 0 0)"><text x="0" y="NaN" font-family="Virgil, Segoe UI Emoji" font-size="13px" fill="#343a40" text-anchor="start" style="white-space: pre;" direction="ltr">BUFFER [u8; 10_000]  (10KB, all zeros)</text></g><g stroke-linecap="round" transform="translate(30 340) rotate(0 15 13)"><path d="M-1.6 -0.58 L31.05 1.81 L30.25 24.23 L0.93 27.53" stroke="none" stroke-width="0" fill="#eebefa"></path><path d="M0.86 0.96 C5.68 1.1, 11.44 -1.79, 29.21 0.39 M-0.65 0.26 C7.08 0.68, 13.37 0.11, 29.42 0.75 M31.54 -1.75 C30.98 6.89, 31.67 9.67, 31.39 25.13 M30.3 -0.8 C30.32 6.12, 29.35 13.98, 30.41 26.35 M31.05 25.79 C24.56 26.1, 15.38 25.56, 1.84 25.6 M29.06 25.86 C18.63 26.3, 8.24 26.03, 0.94 26.04 M-0.72 25.72 C1.07 17.01, -0.66 11.27, 0.59 -1.21 M0.22 27 C-0.94 15.89, -0.43 6.18, 0.44 0.99" stroke="#1e1e1e" stroke-width="1" fill="none"></path></g><g transform="translate(41 346) rotate(0 0 0)"><text x="0" y="NaN" font-family="Virgil, Segoe UI Emoji" font-size="13px" fill="#1e1e1e" text-anchor="start" style="white-space: pre;" direction="ltr">0</text></g><g stroke-linecap="round" transform="translate(60 340) rotate(0 15 13)"><path d="M-1.6 -0.58 L31.05 1.81 L30.25 24.23 L0.93 27.53" stroke="none" stroke-width="0" fill="#eebefa"></path><path d="M0.86 0.96 C5.68 1.1, 11.44 -1.79, 29.21 0.39 M-0.65 0.26 C7.08 0.68, 13.37 0.11, 29.42 0.75 M31.54 -1.75 C30.98 6.89, 31.67 9.67, 31.39 25.13 M30.3 -0.8 C30.32 6.12, 29.35 13.98, 30.41 26.35 M31.05 25.79 C24.56 26.1, 15.38 25.56, 1.84 25.6 M29.06 25.86 C18.63 26.3, 8.24 26.03, 0.94 26.04 M-0.72 25.72 C1.07 17.01, -0.66 11.27, 0.59 -1.21 M0.22 27 C-0.94 15.89, -0.43 6.18, 0.44 0.99" stroke="#1e1e1e" stroke-width="1" fill="none"></path></g><g transform="translate(71 346) rotate(0 0 0)"><text x="0" y="NaN" font-family="Virgil, Segoe UI Emoji" font-size="13px" fill="#1e1e1e" text-anchor="start" style="white-space: pre;" direction="ltr">0</text></g><g stroke-linecap="round" transform="translate(90 340) rotate(0 15 13)"><path d="M-1.6 -0.58 L31.05 1.81 L30.25 24.23 L0.93 27.53" stroke="none" stroke-width="0" fill="#eebefa"></path><path d="M0.86 0.96 C5.68 1.1, 11.44 -1.79, 29.21 0.39 M-0.65 0.26 C7.08 0.68, 13.37 0.11, 29.42 0.75 M31.54 -1.75 C30.98 6.89, 31.67 9.67, 31.39 25.13 M30.3 -0.8 C30.32 6.12, 29.35 13.98, 30.41 26.35 M31.05 25.79 C24.56 26.1, 15.38 25.56, 1.84 25.6 M29.06 25.86 C18.63 26.3, 8.24 26.03, 0.94 26.04 M-0.72 25.72 C1.07 17.01, -0.66 11.27, 0.59 -1.21 M0.22 27 C-0.94 15.89, -0.43 6.18, 0.44 0.99" stroke="#1e1e1e" stroke-width="1" fill="none"></path></g><g transform="translate(101 346) rotate(0 0 0)"><text x="0" y="NaN" font-family="Virgil, Segoe UI Emoji" font-size="13px" fill="#1e1e1e" text-anchor="start" style="white-space: pre;" direction="ltr">0</text></g><g stroke-linecap="round" transform="translate(120 340) rotate(0 23 13)"><path d="M-1.6 -0.58 L47.05 1.81 L46.25 24.23 L0.93 27.53" stroke="none" stroke-width="0" fill="#eebefa"></path><path d="M0.86 0.96 C8.88 1.07, 17.84 -1.82, 45.21 0.39 M-0.65 0.26 C10.62 0.62, 20.45 0.05, 45.42 0.75 M47.54 -1.75 C46.98 6.89, 47.67 9.67, 47.39 25.13 M46.3 -0.8 C46.32 6.12, 45.35 13.98, 46.41 26.35 M47.05 25.79 C37.11 26.26, 24.47 25.72, 1.84 25.6 M45.06 25.86 C28.62 26.32, 12.21 26.05, 0.94 26.04 M-0.72 25.72 C1.07 17.01, -0.66 11.27, 0.59 -1.21 M0.22 27 C-0.94 15.89, -0.43 6.18, 0.44 0.99" stroke="#1e1e1e" stroke-width="1" fill="none"></path></g><g transform="translate(134 346) rotate(0 0 0)"><text x="0" y="NaN" font-family="Virgil, Segoe UI Emoji" font-size="13px" fill="#1e1e1e" text-anchor="start" style="white-space: pre;" direction="ltr">...</text></g><g stroke-linecap="round" transform="translate(166 340) rotate(0 15 13)"><path d="M-1.6 -0.58 L31.05 1.81 L30.25 24.23 L0.93 27.53" stroke="none" stroke-width="0" fill="#eebefa"></path><path d="M0.86 0.96 C5.68 1.1, 11.44 -1.79, 29.21 0.39 M-0.65 0.26 C7.08 0.68, 13.37 0.11, 29.42 0.75 M31.54 -1.75 C30.98 6.89, 31.67 9.67, 31.39 25.13 M30.3 -0.8 C30.32 6.12, 29.35 13.98, 30.41 26.35 M31.05 25.79 C24.56 26.1, 15.38 25.56, 1.84 25.6 M29.06 25.86 C18.63 26.3, 8.24 26.03, 0.94 26.04 M-0.72 25.72 C1.07 17.01, -0.66 11.27, 0.59 -1.21 M0.22 27 C-0.94 15.89, -0.43 6.18, 0.44 0.99" stroke="#1e1e1e" stroke-width="1" fill="none"></path></g><g transform="translate(177 346) rotate(0 0 0)"><text x="0" y="NaN" font-family="Virgil, Segoe UI Emoji" font-size="13px" fill="#1e1e1e" text-anchor="start" style="white-space: pre;" direction="ltr">0</text></g><g transform="translate(22 374) rotate(0 0 0)"><text x="0" y="NaN" font-family="Virgil, Segoe UI Emoji" font-size="13px" fill="#343a40" text-anchor="start" style="white-space: pre;" direction="ltr">.data section (Initialized Mutable):</text></g><g transform="translate(22 392) rotate(0 0 0)"><text x="0" y="NaN" font-family="Virgil, Segoe UI Emoji" font-size="13px" fill="#343a40" text-anchor="start" style="white-space: pre;" direction="ltr">GLOBAL_N: u32 = 10</text></g><g stroke-linecap="round" transform="translate(10 418) rotate(0 210 100)"><path d="M-1.6 -0.58 L421.05 1.81 L420.25 198.23 L0.93 201.53" stroke="none" stroke-width="0" fill="#c3fae8"></path><path d="M0.46 0.51 C83.83 0.17, 167.71 -1.38, 419.58 0.21 M-0.35 0.14 C93.2 -0.53, 185.98 -0.84, 419.69 0.4 M421.38 -1.57 C420.16 44.61, 420.78 85.52, 421.25 199.22 M420.27 -0.72 C420.78 52.91, 419.91 107.38, 420.37 200.32 M420.56 199.89 C329.97 202.11, 237.94 201.82, 0.98 199.78 M419.5 199.92 C262.07 200.4, 104.66 200.25, 0.5 200.02 M-0.65 199.75 C-0.17 141.26, -1.73 85.44, 0.53 -1.09 M0.2 200.9 C-1.81 126.66, -1.35 53.68, 0.4 0.89" stroke="#1e1e1e" stroke-width="2" fill="none"></path></g><g transform="translate(22 432) rotate(0 0 0)"><text x="0" y="NaN" font-family="Virgil, Segoe UI Emoji" font-size="15px" fill="#1e1e1e" text-anchor="start" style="white-space: pre;" direction="ltr">RODATA SEGMENT  (Read-Only)</text></g><g transform="translate(22 458) rotate(0 0 0)"><text x="0" y="NaN" font-family="Virgil, Segoe UI Emoji" font-size="13px" fill="#343a40" text-anchor="start" style="white-space: pre;" direction="ltr">.rodata section (static variables):</text></g><g stroke-linecap="round" transform="translate(30 478) rotate(0 85 33)"><path d="M-1.6 -0.58 L171.05 1.81 L170.25 64.23 L0.93 67.53" stroke="none" stroke-width="0" fill="#96f2d7"></path><path d="M0.86 0.96 C33.68 0.82, 67.44 -2.07, 169.21 0.39 M-0.65 0.26 C38.07 0.08, 75.35 -0.49, 169.42 0.75 M171.54 -1.75 C170.79 15.59, 171.49 27.07, 171.39 65.13 M170.3 -0.8 C170.45 16.85, 169.47 35.46, 170.41 66.35 M171.05 65.79 C134.37 67.49, 94.99 66.95, 1.84 65.6 M169.06 65.86 C106.01 66.46, 42.99 66.19, 0.94 66.04 M-0.72 65.72 C0.78 45.54, -0.95 28.32, 0.59 -1.21 M0.22 67 C-1.18 41.34, -0.68 17.08, 0.44 0.99" stroke="#1e1e1e" stroke-width="1" fill="none"></path></g><g transform="translate(40 486) rotate(0 0 0)"><text x="0" y="NaN" font-family="Virgil, Segoe UI Emoji" font-size="13px" fill="#1e1e1e" text-anchor="start" style="white-space: pre;" direction="ltr">GLOBAL  &amp;str</text></g><g transform="translate(40 506) rotate(0 0 0)"><text x="0" y="NaN" font-family="Virgil, Segoe UI Emoji" font-size="13px" fill="#1e1e1e" text-anchor="start" style="white-space: pre;" direction="ltr">len: 5</text></g><g transform="translate(40 524) rotate(0 0 0)"><text x="0" y="NaN" font-family="Virgil, Segoe UI Emoji" font-size="13px" fill="#1e1e1e" text-anchor="start" style="white-space: pre;" direction="ltr">ptr: *</text></g><g transform="translate(230 486) rotate(0 0 0)"><text x="0" y="NaN" font-family="Virgil, Segoe UI Emoji" font-size="13px" fill="#343a40" text-anchor="start" style="white-space: pre;" direction="ltr">.rodata section</text></g><g transform="translate(230 504) rotate(0 0 0)"><text x="0" y="NaN" font-family="Virgil, Segoe UI Emoji" font-size="13px" fill="#343a40" text-anchor="start" style="white-space: pre;" direction="ltr">(string literals):</text></g><g stroke-linecap="round" transform="translate(230 526) rotate(0 14 14)"><path d="M-1.6 -0.58 L29.05 1.81 L28.25 26.23 L0.93 29.53" stroke="none" stroke-width="0" fill="#63e6be"></path><path d="M0.86 0.96 C5.28 1.11, 10.64 -1.79, 27.21 0.39 M-0.65 0.26 C6.64 0.69, 12.48 0.12, 27.42 0.75 M29.54 -1.75 C28.97 7.32, 29.66 10.54, 29.39 27.13 M28.3 -0.8 C28.33 6.65, 27.35 15.06, 28.41 28.35 M29.05 27.79 C22.99 28.08, 14.24 27.54, 1.84 27.6 M27.06 27.86 C17.39 28.3, 7.74 28.02, 0.94 28.04 M-0.72 27.72 C1.06 18.44, -0.67 12.12, 0.59 -1.21 M0.22 29 C-0.95 17.16, -0.44 6.73, 0.44 0.99" stroke="#1e1e1e" stroke-width="1" fill="none"></path></g><g transform="translate(239 533) rotate(0 0 0)"><text x="0" y="NaN" font-family="Virgil, Segoe UI Emoji" font-size="13px" fill="#1e1e1e" text-anchor="start" style="white-space: pre;" direction="ltr">G</text></g><g stroke-linecap="round" transform="translate(258 526) rotate(0 14 14)"><path d="M-1.6 -0.58 L29.05 1.81 L28.25 26.23 L0.93 29.53" stroke="none" stroke-width="0" fill="#63e6be"></path><path d="M0.86 0.96 C5.28 1.11, 10.64 -1.79, 27.21 0.39 M-0.65 0.26 C6.64 0.69, 12.48 0.12, 27.42 0.75 M29.54 -1.75 C28.97 7.32, 29.66 10.54, 29.39 27.13 M28.3 -0.8 C28.33 6.65, 27.35 15.06, 28.41 28.35 M29.05 27.79 C22.99 28.08, 14.24 27.54, 1.84 27.6 M27.06 27.86 C17.39 28.3, 7.74 28.02, 0.94 28.04 M-0.72 27.72 C1.06 18.44, -0.67 12.12, 0.59 -1.21 M0.22 29 C-0.95 17.16, -0.44 6.73, 0.44 0.99" stroke="#1e1e1e" stroke-width="1" fill="none"></path></g><g transform="translate(269 533) rotate(0 0 0)"><text x="0" y="NaN" font-family="Virgil, Segoe UI Emoji" font-size="13px" fill="#1e1e1e" text-anchor="start" style="white-space: pre;" direction="ltr">l</text></g><g stroke-linecap="round" transform="translate(286 526) rotate(0 14 14)"><path d="M-1.6 -0.58 L29.05 1.81 L28.25 26.23 L0.93 29.53" stroke="none" stroke-width="0" fill="#63e6be"></path><path d="M0.86 0.96 C5.28 1.11, 10.64 -1.79, 27.21 0.39 M-0.65 0.26 C6.64 0.69, 12.48 0.12, 27.42 0.75 M29.54 -1.75 C28.97 7.32, 29.66 10.54, 29.39 27.13 M28.3 -0.8 C28.33 6.65, 27.35 15.06, 28.41 28.35 M29.05 27.79 C22.99 28.08, 14.24 27.54, 1.84 27.6 M27.06 27.86 C17.39 28.3, 7.74 28.02, 0.94 28.04 M-0.72 27.72 C1.06 18.44, -0.67 12.12, 0.59 -1.21 M0.22 29 C-0.95 17.16, -0.44 6.73, 0.44 0.99" stroke="#1e1e1e" stroke-width="1" fill="none"></path></g><g transform="translate(297 533) rotate(0 0 0)"><text x="0" y="NaN" font-family="Virgil, Segoe UI Emoji" font-size="13px" fill="#1e1e1e" text-anchor="start" style="white-space: pre;" direction="ltr">o</text></g><g stroke-linecap="round" transform="translate(314 526) rotate(0 14 14)"><path d="M-1.6 -0.58 L29.05 1.81 L28.25 26.23 L0.93 29.53" stroke="none" stroke-width="0" fill="#63e6be"></path><path d="M0.86 0.96 C5.28 1.11, 10.64 -1.79, 27.21 0.39 M-0.65 0.26 C6.64 0.69, 12.48 0.12, 27.42 0.75 M29.54 -1.75 C28.97 7.32, 29.66 10.54, 29.39 27.13 M28.3 -0.8 C28.33 6.65, 27.35 15.06, 28.41 28.35 M29.05 27.79 C22.99 28.08, 14.24 27.54, 1.84 27.6 M27.06 27.86 C17.39 28.3, 7.74 28.02, 0.94 28.04 M-0.72 27.72 C1.06 18.44, -0.67 12.12, 0.59 -1.21 M0.22 29 C-0.95 17.16, -0.44 6.73, 0.44 0.99" stroke="#1e1e1e" stroke-width="1" fill="none"></path></g><g transform="translate(325 533) rotate(0 0 0)"><text x="0" y="NaN" font-family="Virgil, Segoe UI Emoji" font-size="13px" fill="#1e1e1e" text-anchor="start" style="white-space: pre;" direction="ltr">b</text></g><g stroke-linecap="round" transform="translate(342 526) rotate(0 14 14)"><path d="M-1.6 -0.58 L29.05 1.81 L28.25 26.23 L0.93 29.53" stroke="none" stroke-width="0" fill="#63e6be"></path><path d="M0.86 0.96 C5.28 1.11, 10.64 -1.79, 27.21 0.39 M-0.65 0.26 C6.64 0.69, 12.48 0.12, 27.42 0.75 M29.54 -1.75 C28.97 7.32, 29.66 10.54, 29.39 27.13 M28.3 -0.8 C28.33 6.65, 27.35 15.06, 28.41 28.35 M29.05 27.79 C22.99 28.08, 14.24 27.54, 1.84 27.6 M27.06 27.86 C17.39 28.3, 7.74 28.02, 0.94 28.04 M-0.72 27.72 C1.06 18.44, -0.67 12.12, 0.59 -1.21 M0.22 29 C-0.95 17.16, -0.44 6.73, 0.44 0.99" stroke="#1e1e1e" stroke-width="1" fill="none"></path></g><g transform="translate(353 533) rotate(0 0 0)"><text x="0" y="NaN" font-family="Virgil, Segoe UI Emoji" font-size="13px" fill="#1e1e1e" text-anchor="start" style="white-space: pre;" direction="ltr">a</text></g><g stroke-linecap="round" transform="translate(370 526) rotate(0 14 14)"><path d="M-1.6 -0.58 L29.05 1.81 L28.25 26.23 L0.93 29.53" stroke="none" stroke-width="0" fill="#63e6be"></path><path d="M0.86 0.96 C5.28 1.11, 10.64 -1.79, 27.21 0.39 M-0.65 0.26 C6.64 0.69, 12.48 0.12, 27.42 0.75 M29.54 -1.75 C28.97 7.32, 29.66 10.54, 29.39 27.13 M28.3 -0.8 C28.33 6.65, 27.35 15.06, 28.41 28.35 M29.05 27.79 C22.99 28.08, 14.24 27.54, 1.84 27.6 M27.06 27.86 C17.39 28.3, 7.74 28.02, 0.94 28.04 M-0.72 27.72 C1.06 18.44, -0.67 12.12, 0.59 -1.21 M0.22 29 C-0.95 17.16, -0.44 6.73, 0.44 0.99" stroke="#1e1e1e" stroke-width="1" fill="none"></path></g><g transform="translate(381 533) rotate(0 0 0)"><text x="0" y="NaN" font-family="Virgil, Segoe UI Emoji" font-size="13px" fill="#1e1e1e" text-anchor="start" style="white-space: pre;" direction="ltr">l</text></g><g stroke-linecap="round"><g transform="translate(70 534) rotate(0 79 3)"><path d="M0.24 0.51 C26.87 1.65, 132.17 4.95, 158.58 5.81 M-1.09 -0.26 C25.54 1.15, 131.37 6.07, 157.93 7.24" stroke="#0c8599" stroke-width="2" fill="none"></path></g><g transform="translate(70 534) rotate(0 79 3)"><path d="M130.16 17.17 C134.78 15.52, 140.27 10.83, 157.14 7.64 M128.66 16.47 C136.1 14.91, 142.09 12.36, 157.35 8" stroke="#0c8599" stroke-width="2" fill="none"></path></g><g transform="translate(70 534) rotate(0 79 3)"><path d="M131.1 -3.33 C135.36 -0.88, 140.66 -1.46, 157.14 7.64 M129.59 -4.03 C136.78 -1.04, 142.56 0.94, 157.35 8" stroke="#0c8599" stroke-width="2" fill="none"></path></g></g><g stroke-linecap="round" transform="translate(10 626) rotate(0 210 35)"><path d="M-1.6 -0.58 L421.05 1.81 L420.25 68.23 L0.93 71.53" stroke="none" stroke-width="0" fill="#ffd8a8"></path><path d="M0.46 0.51 C83.83 0.17, 167.71 -1.38, 419.58 0.21 M-0.35 0.14 C93.2 -0.53, 185.98 -0.84, 419.69 0.4 M421.54 -1.75 C420.78 16.46, 421.47 28.81, 421.39 69.13 M420.3 -0.8 C420.46 17.93, 419.49 37.6, 420.41 70.35 M420.56 69.89 C329.97 72.11, 237.94 71.82, 0.98 69.78 M419.5 69.92 C262.07 70.4, 104.66 70.25, 0.5 70.02 M-0.72 69.72 C0.75 48.39, -0.98 30.03, 0.59 -1.21 M0.22 71 C-1.21 43.88, -0.7 18.17, 0.44 0.99" stroke="#1e1e1e" stroke-width="2" fill="none"></path></g><g transform="translate(22 638) rotate(0 0 0)"><text x="0" y="NaN" font-family="Virgil, Segoe UI Emoji" font-size="15px" fill="#1e1e1e" text-anchor="start" style="white-space: pre;" direction="ltr">TEXT  (Code)</text></g><g transform="translate(22 660) rotate(0 0 0)"><text x="0" y="NaN" font-family="Virgil, Segoe UI Emoji" font-size="13px" fill="#343a40" text-anchor="start" style="white-space: pre;" direction="ltr">fn main() {...}    fn process_data() {...}</text></g><g transform="translate(22 678) rotate(0 0 0)"><text x="0" y="NaN" font-family="Virgil, Segoe UI Emoji" font-size="13px" fill="#343a40" text-anchor="start" style="white-space: pre;" direction="ltr">std library: println!, alloc, Vec::push</text></g><g transform="translate(10 706) rotate(0 0 0)"><text x="0" y="NaN" font-family="Virgil, Segoe UI Emoji" font-size="14px" fill="#495057" text-anchor="start" style="white-space: pre;" direction="ltr">Low Memory Addresses  (0x0000_0000_0000_0000)</text></g><g stroke-linecap="round" transform="translate(470 82) rotate(0 150 32)"><path d="M-1.6 -0.58 L301.05 1.81 L300.25 62.23 L0.93 65.53" stroke="none" stroke-width="0" fill="#fff3bf"></path><path d="M0.63 0.71 C59.77 0.41, 119.59 -1.71, 299.42 0.29 M-0.48 0.19 C66.73 -0.35, 132.87 -0.77, 299.57 0.55 M301.54 -1.75 C300.8 15.15, 301.49 26.2, 301.39 63.13 M300.3 -0.8 C300.44 16.32, 299.47 34.38, 300.41 64.35 M300.77 63.84 C236.05 66.03, 169.36 65.64, 1.35 63.7 M299.31 63.89 C187.16 64.45, 75.04 64.25, 0.69 64.03 M-0.72 63.72 C0.8 44.12, -0.94 27.47, 0.59 -1.21 M0.22 65 C-1.17 40.07, -0.66 16.54, 0.44 0.99" stroke="#1e1e1e" stroke-width="1" fill="none"></path></g><g transform="translate(484 96) rotate(0 0 0)"><text x="0" y="NaN" font-family="Virgil, Segoe UI Emoji" font-size="14px" fill="#1e1e1e" text-anchor="start" style="white-space: pre;" direction="ltr">Note that segments consist</text></g><g transform="translate(484 118) rotate(0 0 0)"><text x="0" y="NaN" font-family="Virgil, Segoe UI Emoji" font-size="14px" fill="#1e1e1e" text-anchor="start" style="white-space: pre;" direction="ltr">of multiple sections</text></g><g stroke-linecap="round" transform="translate(470 170) rotate(0 150 210)"><path d="M-1.6 -0.58 L301.05 1.81 L300.25 418.23 L0.93 421.53" stroke="none" stroke-width="0" fill="#f8f9fa"></path><path d="M0.63 0.71 C59.77 0.41, 119.59 -1.71, 299.42 0.29 M-0.48 0.19 C66.73 -0.35, 132.87 -0.77, 299.57 0.55 M300.82 -0.93 C299.55 92.01, 299.92 181.83, 300.74 419.54 M300.16 -0.43 C300.83 112.27, 300.31 225.47, 300.22 420.19 M300.77 419.84 C236.05 422.03, 169.36 421.64, 1.35 419.7 M299.31 419.89 C187.16 420.45, 75.04 420.25, 0.69 420.03 M-0.38 419.85 C-0.95 298.73, -1.88 179.18, 0.32 -0.64 M0.12 420.53 C-1.79 266.87, -1.52 113.96, 0.24 0.53" stroke="#1e1e1e" stroke-width="1" fill="none"></path></g><g transform="translate(484 182) rotate(0 0 0)"><text x="0" y="NaN" font-family="Cascadia, Segoe UI Emoji" font-size="13px" fill="#1e1e1e" text-anchor="start" style="white-space: pre;" direction="ltr">static GLOBAL_S: &amp;str = "Global";</text></g><g transform="translate(484 200) rotate(0 0 0)"><text x="0" y="NaN" font-family="Cascadia, Segoe UI Emoji" font-size="13px" fill="#1e1e1e" text-anchor="start" style="white-space: pre;" direction="ltr">static mut GLOBAL_N: u32 = 10;</text></g><g transform="translate(484 218) rotate(0 0 0)"><text x="0" y="NaN" font-family="Cascadia, Segoe UI Emoji" font-size="13px" fill="#1e1e1e" text-anchor="start" style="white-space: pre;" direction="ltr">static mut BUFFER = [0; 10_000];</text></g><g transform="translate(484 244) rotate(0 0 0)"><text x="0" y="NaN" font-family="Cascadia, Segoe UI Emoji" font-size="13px" fill="#1e1e1e" text-anchor="start" style="white-space: pre;" direction="ltr">fn main() {</text></g><g transform="translate(484 262) rotate(0 0 0)"><text x="0" y="NaN" font-family="Cascadia, Segoe UI Emoji" font-size="13px" fill="#1e1e1e" text-anchor="start" style="white-space: pre;" direction="ltr">    let x = 42;</text></g><g transform="translate(484 280) rotate(0 0 0)"><text x="0" y="NaN" font-family="Cascadia, Segoe UI Emoji" font-size="13px" fill="#1e1e1e" text-anchor="start" style="white-space: pre;" direction="ltr">    let y = 100;</text></g><g transform="translate(484 298) rotate(0 0 0)"><text x="0" y="NaN" font-family="Cascadia, Segoe UI Emoji" font-size="13px" fill="#1e1e1e" text-anchor="start" style="white-space: pre;" direction="ltr">    let s = String::from("Local");</text></g><g transform="translate(484 316) rotate(0 0 0)"><text x="0" y="NaN" font-family="Cascadia, Segoe UI Emoji" font-size="13px" fill="#1e1e1e" text-anchor="start" style="white-space: pre;" direction="ltr">    let v = vec![1, 2, 3, 4, 5];</text></g><g transform="translate(484 334) rotate(0 0 0)"><text x="0" y="NaN" font-family="Cascadia, Segoe UI Emoji" font-size="13px" fill="#1e1e1e" text-anchor="start" style="white-space: pre;" direction="ltr">    let arr = [10, 20, 30, 40, 50];</text></g><g transform="translate(484 352) rotate(0 0 0)"><text x="0" y="NaN" font-family="Cascadia, Segoe UI Emoji" font-size="13px" fill="#1e1e1e" text-anchor="start" style="white-space: pre;" direction="ltr">    let doubled =</text></g><g transform="translate(484 370) rotate(0 0 0)"><text x="0" y="NaN" font-family="Cascadia, Segoe UI Emoji" font-size="13px" fill="#1e1e1e" text-anchor="start" style="white-space: pre;" direction="ltr">        process_data(x, &amp;s);</text></g><g transform="translate(484 388) rotate(0 0 0)"><text x="0" y="NaN" font-family="Cascadia, Segoe UI Emoji" font-size="13px" fill="#1e1e1e" text-anchor="start" style="white-space: pre;" direction="ltr">    ...</text></g><g transform="translate(484 406) rotate(0 0 0)"><text x="0" y="NaN" font-family="Cascadia, Segoe UI Emoji" font-size="13px" fill="#1e1e1e" text-anchor="start" style="white-space: pre;" direction="ltr">}</text></g><g transform="translate(484 432) rotate(0 0 0)"><text x="0" y="NaN" font-family="Cascadia, Segoe UI Emoji" font-size="13px" fill="#1e1e1e" text-anchor="start" style="white-space: pre;" direction="ltr">fn process_data(</text></g><g transform="translate(484 450) rotate(0 0 0)"><text x="0" y="NaN" font-family="Cascadia, Segoe UI Emoji" font-size="13px" fill="#1e1e1e" text-anchor="start" style="white-space: pre;" direction="ltr">    param_num: i32,</text></g><g transform="translate(484 468) rotate(0 0 0)"><text x="0" y="NaN" font-family="Cascadia, Segoe UI Emoji" font-size="13px" fill="#1e1e1e" text-anchor="start" style="white-space: pre;" direction="ltr">    param_text: &amp;String</text></g><g transform="translate(484 486) rotate(0 0 0)"><text x="0" y="NaN" font-family="Cascadia, Segoe UI Emoji" font-size="13px" fill="#1e1e1e" text-anchor="start" style="white-space: pre;" direction="ltr">) -&gt; i32 {</text></g><g transform="translate(484 504) rotate(0 0 0)"><text x="0" y="NaN" font-family="Cascadia, Segoe UI Emoji" font-size="13px" fill="#1e1e1e" text-anchor="start" style="white-space: pre;" direction="ltr">    let result = param_num * 2;</text></g><g transform="translate(484 522) rotate(0 0 0)"><text x="0" y="NaN" font-family="Cascadia, Segoe UI Emoji" font-size="13px" fill="#1e1e1e" text-anchor="start" style="white-space: pre;" direction="ltr">    ...</text></g><g transform="translate(484 540) rotate(0 0 0)"><text x="0" y="NaN" font-family="Cascadia, Segoe UI Emoji" font-size="13px" fill="#1e1e1e" text-anchor="start" style="white-space: pre;" direction="ltr">    result</text></g><g transform="translate(484 558) rotate(0 0 0)"><text x="0" y="NaN" font-family="Cascadia, Segoe UI Emoji" font-size="13px" fill="#1e1e1e" text-anchor="start" style="white-space: pre;" direction="ltr">}</text></g></svg>